<svg xmlns="http://www.w3.org/2000/svg" xmlns:xlink="http://www.w3.org/1999/xlink" width="500" zoomAndPan="magnify" viewBox="0 0 375 374.999991" height="500" preserveAspectRatio="xMidYMid meet" version="1.0"><defs><g/><clipPath id="b40d79a2a1"><path d="M 74.214844 21.109375 L 309.714844 21.109375 L 309.714844 283.609375 L 74.214844 283.609375 Z M 74.214844 21.109375 " clip-rule="nonzero"/></clipPath></defs><g clip-path="url(#b40d79a2a1)"><path fill="#d40000" d="M 261.109375 227.296875 C 259.570312 227.296875 258.035156 226.683594 256.804688 225.605469 L 246.195312 214.84375 C 240.351562 209.152344 249.117188 200.390625 254.804688 206.234375 L 261.109375 212.535156 L 279.558594 194.085938 C 285.25 188.398438 294.011719 197.160156 288.171875 202.851562 L 265.566406 225.605469 C 264.339844 226.683594 262.800781 227.296875 261.109375 227.296875 Z M 243.121094 283.574219 L 104.429688 283.574219 C 87.824219 283.574219 74.292969 269.886719 74.292969 253.28125 L 74.292969 51.398438 C 74.292969 34.640625 87.824219 21.109375 104.429688 21.109375 L 243.121094 21.109375 C 259.726562 21.109375 273.257812 34.640625 273.257812 51.398438 L 273.257812 163.179688 C 279.867188 167.332031 291.246094 172.40625 300.472656 167.023438 C 304.621094 164.71875 309.695312 167.640625 309.695312 172.40625 L 309.695312 211 C 309.695312 222.992188 300.777344 248.667969 272.949219 258.050781 C 270.640625 272.503906 258.035156 283.574219 243.121094 283.574219 Z M 260.957031 163.027344 L 260.957031 51.398438 C 260.957031 41.402344 252.960938 33.410156 243.121094 33.410156 L 104.429688 33.410156 C 94.589844 33.410156 86.59375 41.402344 86.59375 51.398438 L 86.59375 253.28125 C 86.59375 263.125 94.589844 271.273438 104.429688 271.273438 L 243.121094 271.273438 C 251.421875 271.273438 258.496094 265.429688 260.496094 257.742188 C 233.277344 248.054688 224.667969 222.839844 224.667969 211 L 224.667969 172.40625 C 224.667969 167.640625 229.742188 164.71875 233.894531 167.023438 C 243.121094 172.40625 254.34375 167.332031 260.957031 163.027344 Z M 220.515625 78.304688 L 127.03125 78.304688 C 118.882812 78.304688 118.882812 66.003906 127.03125 66.003906 L 220.515625 66.003906 C 228.667969 66.003906 228.667969 78.304688 220.515625 78.304688 Z M 238.351562 118.4375 L 109.195312 118.4375 C 101.046875 118.4375 101.046875 106.136719 109.195312 106.136719 L 238.351562 106.136719 C 246.503906 106.136719 246.503906 118.4375 238.351562 118.4375 Z M 238.351562 158.414062 L 109.195312 158.414062 C 101.046875 158.414062 101.046875 146.113281 109.195312 146.113281 L 238.351562 146.113281 C 246.503906 146.113281 246.503906 158.414062 238.351562 158.414062 Z M 179.15625 198.542969 L 109.195312 198.542969 C 101.046875 198.542969 101.046875 186.242188 109.195312 186.242188 L 179.15625 186.242188 C 187.304688 186.242188 187.304688 198.542969 179.15625 198.542969 Z M 187.460938 238.523438 L 109.195312 238.523438 C 101.046875 238.523438 101.046875 226.222656 109.195312 226.222656 L 187.460938 226.222656 C 195.453125 226.222656 195.453125 238.523438 187.460938 238.523438 Z M 236.96875 210.84375 C 237.121094 212.84375 239.121094 238.675781 267.105469 246.976562 C 295.242188 238.675781 297.242188 212.996094 297.394531 210.84375 L 297.394531 181.171875 C 285.710938 183.324219 274.179688 178.25 267.105469 173.789062 C 260.1875 178.25 248.65625 183.324219 236.96875 181.171875 Z M 236.96875 210.84375 " fill-opacity="1" fill-rule="evenodd"/></g><g fill="#d40000" fill-opacity="1"><g transform="translate(51.034235, 337.44358)"><g><path d="M 20.046875 0 L 3.59375 0 L 3.59375 -28.5625 L 20.046875 -28.5625 L 20.046875 -23.59375 L 9.65625 -23.59375 L 9.65625 -17.328125 L 19.3125 -17.328125 L 19.3125 -12.359375 L 9.65625 -12.359375 L 9.65625 -5 L 20.046875 -5 Z M 20.046875 0 "/></g></g></g><g fill="#d40000" fill-opacity="1"><g transform="translate(73.434395, 337.44358)"><g><path d="M 1.375 9.609375 C -0.15625 9.609375 -1.46875 9.445312 -2.5625 9.125 L -2.5625 4.4375 C -1.644531 4.6875 -0.710938 4.8125 0.234375 4.8125 C 1.234375 4.8125 1.960938 4.53125 2.421875 3.96875 C 2.890625 3.40625 3.125 2.578125 3.125 1.484375 L 3.125 -21.84375 L 9.078125 -21.84375 L 9.078125 2.359375 C 9.078125 4.679688 8.40625 6.46875 7.0625 7.71875 C 5.726562 8.976562 3.832031 9.609375 1.375 9.609375 Z M 2.875 -27.484375 C 2.875 -29.421875 3.953125 -30.390625 6.109375 -30.390625 C 8.273438 -30.390625 9.359375 -29.421875 9.359375 -27.484375 C 9.359375 -26.554688 9.085938 -25.832031 8.546875 -25.3125 C 8.003906 -24.800781 7.191406 -24.546875 6.109375 -24.546875 C 3.953125 -24.546875 2.875 -25.523438 2.875 -27.484375 Z M 2.875 -27.484375 "/></g></g></g><g fill="#d40000" fill-opacity="1"><g transform="translate(85.640239, 337.44358)"><g><path d="M 12.171875 -18.015625 C 10.910156 -18.015625 9.921875 -17.613281 9.203125 -16.8125 C 8.484375 -16.007812 8.070312 -14.875 7.96875 -13.40625 L 16.328125 -13.40625 C 16.304688 -14.875 15.921875 -16.007812 15.171875 -16.8125 C 14.429688 -17.613281 13.429688 -18.015625 12.171875 -18.015625 Z M 13.015625 0.390625 C 9.492188 0.390625 6.742188 -0.578125 4.765625 -2.515625 C 2.785156 -4.460938 1.796875 -7.210938 1.796875 -10.765625 C 1.796875 -14.421875 2.707031 -17.25 4.53125 -19.25 C 6.363281 -21.25 8.894531 -22.25 12.125 -22.25 C 15.21875 -22.25 17.625 -21.367188 19.34375 -19.609375 C 21.0625 -17.847656 21.921875 -15.421875 21.921875 -12.328125 L 21.921875 -9.4375 L 7.828125 -9.4375 C 7.898438 -7.738281 8.40625 -6.414062 9.34375 -5.46875 C 10.28125 -4.519531 11.59375 -4.046875 13.28125 -4.046875 C 14.59375 -4.046875 15.832031 -4.179688 17 -4.453125 C 18.175781 -4.722656 19.40625 -5.160156 20.6875 -5.765625 L 20.6875 -1.15625 C 19.644531 -0.632812 18.53125 -0.25 17.34375 0 C 16.15625 0.257812 14.710938 0.390625 13.015625 0.390625 Z M 13.015625 0.390625 "/></g></g></g><g fill="#d40000" fill-opacity="1"><g transform="translate(109.270742, 337.44358)"><g><path d="M 22.671875 0 L 16.71875 0 L 16.71875 -12.75 C 16.71875 -14.332031 16.453125 -15.515625 15.921875 -16.296875 C 15.398438 -17.085938 14.570312 -17.484375 13.4375 -17.484375 C 11.914062 -17.484375 10.804688 -16.921875 10.109375 -15.796875 C 9.421875 -14.679688 9.078125 -12.84375 9.078125 -10.28125 L 9.078125 0 L 3.125 0 L 3.125 -21.84375 L 7.671875 -21.84375 L 8.484375 -19.046875 L 8.8125 -19.046875 C 9.394531 -20.046875 10.238281 -20.828125 11.34375 -21.390625 C 12.457031 -21.960938 13.726562 -22.25 15.15625 -22.25 C 18.425781 -22.25 20.640625 -21.179688 21.796875 -19.046875 L 22.328125 -19.046875 C 22.910156 -20.054688 23.769531 -20.84375 24.90625 -21.40625 C 26.050781 -21.96875 27.335938 -22.25 28.765625 -22.25 C 31.242188 -22.25 33.117188 -21.613281 34.390625 -20.34375 C 35.660156 -19.070312 36.296875 -17.035156 36.296875 -14.234375 L 36.296875 0 L 30.3125 0 L 30.3125 -12.75 C 30.3125 -14.332031 30.046875 -15.515625 29.515625 -16.296875 C 28.992188 -17.085938 28.164062 -17.484375 27.03125 -17.484375 C 25.570312 -17.484375 24.476562 -16.960938 23.75 -15.921875 C 23.03125 -14.878906 22.671875 -13.222656 22.671875 -10.953125 Z M 22.671875 0 "/></g></g></g><g fill="#d40000" fill-opacity="1"><g transform="translate(148.544253, 337.44358)"><g><path d="M 15.125 0.390625 C 12.550781 0.390625 10.535156 -0.539062 9.078125 -2.40625 L 8.765625 -2.40625 C 8.972656 -0.582031 9.078125 0.472656 9.078125 0.765625 L 9.078125 9.609375 L 3.125 9.609375 L 3.125 -21.84375 L 7.96875 -21.84375 L 8.8125 -19 L 9.078125 -19 C 10.472656 -21.164062 12.539062 -22.25 15.28125 -22.25 C 17.851562 -22.25 19.867188 -21.25 21.328125 -19.25 C 22.785156 -17.257812 23.515625 -14.492188 23.515625 -10.953125 C 23.515625 -8.628906 23.171875 -6.609375 22.484375 -4.890625 C 21.804688 -3.171875 20.832031 -1.859375 19.5625 -0.953125 C 18.300781 -0.0546875 16.820312 0.390625 15.125 0.390625 Z M 13.359375 -17.484375 C 11.890625 -17.484375 10.816406 -17.03125 10.140625 -16.125 C 9.460938 -15.21875 9.109375 -13.722656 9.078125 -11.640625 L 9.078125 -11 C 9.078125 -8.65625 9.425781 -6.972656 10.125 -5.953125 C 10.820312 -4.941406 11.925781 -4.4375 13.4375 -4.4375 C 16.101562 -4.4375 17.4375 -6.632812 17.4375 -11.03125 C 17.4375 -13.1875 17.109375 -14.800781 16.453125 -15.875 C 15.796875 -16.945312 14.765625 -17.484375 13.359375 -17.484375 Z M 13.359375 -17.484375 "/></g></g></g><g fill="#d40000" fill-opacity="1"><g transform="translate(173.854279, 337.44358)"><g><path d="M 9.078125 0 L 3.125 0 L 3.125 -30.390625 L 9.078125 -30.390625 Z M 9.078125 0 "/></g></g></g><g fill="#d40000" fill-opacity="1"><g transform="translate(186.060123, 337.44358)"><g><path d="M 7.875 -10.953125 C 7.875 -8.796875 8.226562 -7.160156 8.9375 -6.046875 C 9.644531 -4.941406 10.800781 -4.390625 12.40625 -4.390625 C 13.988281 -4.390625 15.128906 -4.941406 15.828125 -6.046875 C 16.523438 -7.148438 16.875 -8.785156 16.875 -10.953125 C 16.875 -13.117188 16.519531 -14.738281 15.8125 -15.8125 C 15.113281 -16.894531 13.960938 -17.4375 12.359375 -17.4375 C 10.773438 -17.4375 9.628906 -16.898438 8.921875 -15.828125 C 8.222656 -14.753906 7.875 -13.128906 7.875 -10.953125 Z M 22.96875 -10.953125 C 22.96875 -7.398438 22.03125 -4.617188 20.15625 -2.609375 C 18.28125 -0.609375 15.671875 0.390625 12.328125 0.390625 C 10.234375 0.390625 8.382812 -0.0664062 6.78125 -0.984375 C 5.175781 -1.898438 3.941406 -3.21875 3.078125 -4.9375 C 2.222656 -6.65625 1.796875 -8.660156 1.796875 -10.953125 C 1.796875 -14.523438 2.726562 -17.300781 4.59375 -19.28125 C 6.457031 -21.257812 9.070312 -22.25 12.4375 -22.25 C 14.539062 -22.25 16.390625 -21.789062 17.984375 -20.875 C 19.585938 -19.96875 20.816406 -18.660156 21.671875 -16.953125 C 22.535156 -15.242188 22.96875 -13.242188 22.96875 -10.953125 Z M 22.96875 -10.953125 "/></g></g></g><g fill="#d40000" fill-opacity="1"><g transform="translate(210.823328, 337.44358)"><g/></g></g><g fill="#d40000" fill-opacity="1"><g transform="translate(221.212938, 337.44358)"><g><path d="M 15.71875 -23.921875 C 13.445312 -23.921875 11.6875 -23.066406 10.4375 -21.359375 C 9.1875 -19.648438 8.5625 -17.265625 8.5625 -14.203125 C 8.5625 -7.835938 10.945312 -4.65625 15.71875 -4.65625 C 17.726562 -4.65625 20.160156 -5.15625 23.015625 -6.15625 L 23.015625 -1.078125 C 20.671875 -0.0976562 18.050781 0.390625 15.15625 0.390625 C 11 0.390625 7.820312 -0.867188 5.625 -3.390625 C 3.425781 -5.910156 2.328125 -9.523438 2.328125 -14.234375 C 2.328125 -17.203125 2.863281 -19.800781 3.9375 -22.03125 C 5.019531 -24.269531 6.570312 -25.984375 8.59375 -27.171875 C 10.625 -28.367188 13 -28.96875 15.71875 -28.96875 C 18.5 -28.96875 21.285156 -28.296875 24.078125 -26.953125 L 22.125 -22.03125 C 21.0625 -22.539062 19.988281 -22.984375 18.90625 -23.359375 C 17.820312 -23.734375 16.757812 -23.921875 15.71875 -23.921875 Z M 15.71875 -23.921875 "/></g></g></g><g fill="#d40000" fill-opacity="1"><g transform="translate(246.698734, 337.44358)"><g><path d="M 9.65625 -15.125 L 11.640625 -15.125 C 13.503906 -15.125 14.894531 -15.488281 15.8125 -16.21875 C 16.738281 -16.957031 17.203125 -18.03125 17.203125 -19.4375 C 17.203125 -20.851562 16.816406 -21.898438 16.046875 -22.578125 C 15.273438 -23.253906 14.0625 -23.59375 12.40625 -23.59375 L 9.65625 -23.59375 Z M 23.328125 -19.65625 C 23.328125 -16.582031 22.363281 -14.226562 20.4375 -12.59375 C 18.519531 -10.96875 15.789062 -10.15625 12.25 -10.15625 L 9.65625 -10.15625 L 9.65625 0 L 3.59375 0 L 3.59375 -28.5625 L 12.71875 -28.5625 C 16.175781 -28.5625 18.804688 -27.8125 20.609375 -26.3125 C 22.421875 -24.820312 23.328125 -22.601562 23.328125 -19.65625 Z M 23.328125 -19.65625 "/></g></g></g><g fill="#d40000" fill-opacity="1"><g transform="translate(271.813456, 337.44358)"><g><path d="M 3.59375 0 L 3.59375 -28.5625 L 9.65625 -28.5625 L 9.65625 0 Z M 3.59375 0 "/></g></g></g><g fill="#d40000" fill-opacity="1"><g transform="translate(285.054361, 337.44358)"><g><path d="M 15.71875 -23.921875 C 13.445312 -23.921875 11.6875 -23.066406 10.4375 -21.359375 C 9.1875 -19.648438 8.5625 -17.265625 8.5625 -14.203125 C 8.5625 -7.835938 10.945312 -4.65625 15.71875 -4.65625 C 17.726562 -4.65625 20.160156 -5.15625 23.015625 -6.15625 L 23.015625 -1.078125 C 20.671875 -0.0976562 18.050781 0.390625 15.15625 0.390625 C 11 0.390625 7.820312 -0.867188 5.625 -3.390625 C 3.425781 -5.910156 2.328125 -9.523438 2.328125 -14.234375 C 2.328125 -17.203125 2.863281 -19.800781 3.9375 -22.03125 C 5.019531 -24.269531 6.570312 -25.984375 8.59375 -27.171875 C 10.625 -28.367188 13 -28.96875 15.71875 -28.96875 C 18.5 -28.96875 21.285156 -28.296875 24.078125 -26.953125 L 22.125 -22.03125 C 21.0625 -22.539062 19.988281 -22.984375 18.90625 -23.359375 C 17.820312 -23.734375 16.757812 -23.921875 15.71875 -23.921875 Z M 15.71875 -23.921875 "/></g></g></g></svg>