<svg xmlns="http://www.w3.org/2000/svg" xmlns:xlink="http://www.w3.org/1999/xlink" width="500" zoomAndPan="magnify" viewBox="0 0 375 374.999991" height="500" preserveAspectRatio="xMidYMid meet" version="1.0"><defs><g/><clipPath id="5af3db5bf6"><path d="M 51.621094 18.054688 L 323.121094 18.054688 L 323.121094 289.554688 L 51.621094 289.554688 Z M 51.621094 18.054688 " clip-rule="nonzero"/></clipPath></defs><path fill="#d40000" d="M 304.558594 47.453125 L 298.363281 41.257812 L 275.160156 64.457031 L 269.496094 58.789062 L 263.296875 64.988281 L 275.160156 76.851562 L 304.558594 47.453125 " fill-opacity="1" fill-rule="nonzero"/><path fill="#d40000" d="M 125.261719 73.273438 L 118.242188 68.035156 L 94.972656 99.042969 L 89.785156 93.855469 L 83.585938 100.050781 L 95.929688 112.398438 L 125.261719 73.273438 " fill-opacity="1" fill-rule="nonzero"/><g clip-path="url(#5af3db5bf6)"><path fill="#d40000" d="M 314.609375 250.367188 L 270.777344 250.367188 L 270.777344 206.535156 L 303.652344 206.535156 L 314.609375 221.136719 Z M 314.609375 263.515625 C 314.609375 265.929688 312.640625 267.898438 310.226562 267.898438 L 305.226562 267.898438 C 304.320312 264.4375 302.402344 261.410156 299.78125 259.132812 L 314.609375 259.132812 Z M 288.3125 281.046875 C 283.484375 281.046875 279.546875 277.109375 279.546875 272.28125 C 279.546875 267.453125 283.484375 263.515625 288.3125 263.515625 C 293.140625 263.515625 297.078125 267.453125 297.078125 272.28125 C 297.078125 277.109375 293.140625 281.046875 288.3125 281.046875 Z M 271.394531 267.898438 L 235.097656 267.898438 C 234.1875 264.4375 232.273438 261.410156 229.652344 259.132812 L 276.839844 259.132812 C 274.21875 261.410156 272.300781 264.4375 271.394531 267.898438 Z M 218.179688 281.046875 C 213.351562 281.046875 209.414062 277.109375 209.414062 272.28125 C 209.414062 267.453125 213.351562 263.515625 218.179688 263.515625 C 223.007812 263.515625 226.945312 267.453125 226.945312 272.28125 C 226.945312 277.109375 223.007812 281.046875 218.179688 281.046875 Z M 201.265625 267.898438 L 196.265625 267.898438 C 193.851562 267.898438 191.882812 265.929688 191.882812 263.515625 L 191.882812 259.132812 L 206.707031 259.132812 C 204.089844 261.410156 202.171875 264.4375 201.265625 267.898438 Z M 183.113281 180.234375 L 183.113281 237.214844 L 77.917969 237.214844 L 77.917969 53.121094 L 96.253906 53.121094 C 98.070312 58.207031 102.898438 61.886719 108.601562 61.886719 L 169.964844 61.886719 C 175.667969 61.886719 180.496094 58.207031 182.308594 53.121094 L 200.648438 53.121094 L 200.648438 180.234375 Z M 183.113281 250.367188 L 183.113281 254.75 L 73.535156 254.75 C 66.277344 254.75 60.386719 248.859375 60.386719 241.597656 L 60.386719 48.738281 C 60.386719 41.480469 66.277344 35.589844 73.535156 35.589844 L 95.449219 35.589844 L 95.449219 44.355469 L 77.917969 44.355469 C 73.089844 44.355469 69.152344 48.292969 69.152344 53.121094 L 69.152344 237.214844 C 69.152344 242.042969 73.089844 245.980469 77.917969 245.980469 L 183.113281 245.980469 Z M 104.21875 31.207031 C 104.21875 28.792969 106.1875 26.824219 108.601562 26.824219 L 169.964844 26.824219 C 172.378906 26.824219 174.347656 28.792969 174.347656 31.207031 L 174.347656 48.738281 C 174.347656 51.152344 172.378906 53.121094 169.964844 53.121094 L 108.601562 53.121094 C 106.1875 53.121094 104.21875 51.152344 104.21875 48.738281 Z M 183.113281 35.589844 L 205.03125 35.589844 C 212.289062 35.589844 218.179688 41.480469 218.179688 48.738281 L 218.179688 180.234375 L 209.414062 180.234375 L 209.414062 53.121094 C 209.414062 48.292969 205.476562 44.355469 200.648438 44.355469 L 183.113281 44.355469 Z M 235.714844 189 L 235.714844 197.765625 L 218.179688 197.765625 L 218.179688 189 Z M 244.480469 206.535156 L 244.480469 189 L 262.011719 189 L 262.011719 250.367188 L 191.882812 250.367188 L 191.882812 189 L 209.414062 189 L 209.414062 206.535156 Z M 226.945312 61.886719 L 244.738281 61.886719 C 246.773438 80.140625 261.292969 94.660156 279.546875 96.695312 L 279.546875 197.765625 L 270.777344 197.765625 L 270.777344 180.234375 L 226.945312 180.234375 Z M 283.929688 26.824219 C 300.84375 26.824219 314.609375 40.589844 314.609375 57.503906 C 314.609375 74.421875 300.84375 88.1875 283.929688 88.1875 C 267.011719 88.1875 253.246094 74.421875 253.246094 57.503906 C 253.246094 40.589844 267.011719 26.824219 283.929688 26.824219 Z M 288.3125 197.765625 L 288.3125 96.695312 C 308 94.503906 323.378906 77.777344 323.378906 57.503906 C 323.378906 35.742188 305.671875 18.054688 283.929688 18.054688 C 263.65625 18.054688 246.929688 33.429688 244.738281 53.121094 L 226.945312 53.121094 L 226.945312 48.738281 C 226.945312 36.652344 217.117188 26.824219 205.03125 26.824219 L 182.308594 26.824219 C 180.496094 21.738281 175.667969 18.054688 169.964844 18.054688 L 108.601562 18.054688 C 102.898438 18.054688 98.070312 21.738281 96.253906 26.824219 L 73.535156 26.824219 C 61.445312 26.824219 51.621094 36.652344 51.621094 48.738281 L 51.621094 241.597656 C 51.621094 253.6875 61.445312 263.515625 73.535156 263.515625 L 183.113281 263.515625 C 183.113281 270.773438 189.003906 276.664062 196.265625 276.664062 L 201.265625 276.664062 C 203.234375 284.199219 210.03125 289.8125 218.179688 289.8125 C 226.332031 289.8125 233.128906 284.199219 235.097656 276.664062 L 271.394531 276.664062 C 273.363281 284.199219 280.160156 289.8125 288.3125 289.8125 C 296.460938 289.8125 303.257812 284.199219 305.226562 276.664062 L 310.226562 276.664062 C 317.488281 276.664062 323.378906 270.773438 323.378906 263.515625 L 323.378906 218.226562 L 308.035156 197.765625 L 288.3125 197.765625 " fill-opacity="1" fill-rule="nonzero"/></g><path fill="#d40000" d="M 134.898438 79.421875 L 191.882812 79.421875 L 191.882812 70.65625 L 134.898438 70.65625 L 134.898438 79.421875 " fill-opacity="1" fill-rule="nonzero"/><path fill="#d40000" d="M 183.113281 96.953125 L 191.882812 96.953125 L 191.882812 88.1875 L 183.113281 88.1875 L 183.113281 96.953125 " fill-opacity="1" fill-rule="nonzero"/><path fill="#d40000" d="M 174.347656 88.1875 L 134.898438 88.1875 L 134.898438 96.953125 L 174.347656 96.953125 L 174.347656 88.1875 " fill-opacity="1" fill-rule="nonzero"/><path fill="#d40000" d="M 134.898438 114.488281 L 191.882812 114.488281 L 191.882812 105.71875 L 134.898438 105.71875 L 134.898438 114.488281 " fill-opacity="1" fill-rule="nonzero"/><path fill="#d40000" d="M 125.261719 125.871094 L 118.242188 120.632812 L 94.972656 151.640625 L 89.785156 146.453125 L 83.585938 152.652344 L 95.929688 164.996094 L 125.261719 125.871094 " fill-opacity="1" fill-rule="nonzero"/><path fill="#d40000" d="M 134.898438 132.019531 L 191.882812 132.019531 L 191.882812 123.253906 L 134.898438 123.253906 L 134.898438 132.019531 " fill-opacity="1" fill-rule="nonzero"/><path fill="#d40000" d="M 183.113281 149.550781 L 191.882812 149.550781 L 191.882812 140.785156 L 183.113281 140.785156 L 183.113281 149.550781 " fill-opacity="1" fill-rule="nonzero"/><path fill="#d40000" d="M 174.347656 140.785156 L 134.898438 140.785156 L 134.898438 149.550781 L 174.347656 149.550781 L 174.347656 140.785156 " fill-opacity="1" fill-rule="nonzero"/><path fill="#d40000" d="M 134.898438 167.085938 L 191.882812 167.085938 L 191.882812 158.316406 L 134.898438 158.316406 L 134.898438 167.085938 " fill-opacity="1" fill-rule="nonzero"/><path fill="#d40000" d="M 95.449219 193.382812 L 130.515625 193.382812 L 130.515625 219.683594 L 95.449219 219.683594 Z M 86.683594 228.449219 L 139.28125 228.449219 L 139.28125 184.617188 L 86.683594 184.617188 L 86.683594 228.449219 " fill-opacity="1" fill-rule="nonzero"/><path fill="#d40000" d="M 148.050781 193.382812 L 174.347656 193.382812 L 174.347656 184.617188 L 148.050781 184.617188 L 148.050781 193.382812 " fill-opacity="1" fill-rule="nonzero"/><path fill="#d40000" d="M 148.050781 210.917969 L 174.347656 210.917969 L 174.347656 202.148438 L 148.050781 202.148438 L 148.050781 210.917969 " fill-opacity="1" fill-rule="nonzero"/><path fill="#d40000" d="M 148.050781 228.449219 L 174.347656 228.449219 L 174.347656 219.683594 L 148.050781 219.683594 L 148.050781 228.449219 " fill-opacity="1" fill-rule="nonzero"/><g fill="#ffffff" fill-opacity="1"><g transform="translate(130.874996, 336.334108)"><g><path d="M 27 0 L 20.953125 0 L 20.953125 -12.328125 L 9.65625 -12.328125 L 9.65625 0 L 3.59375 0 L 3.59375 -28.5625 L 9.65625 -28.5625 L 9.65625 -17.359375 L 20.953125 -17.359375 L 20.953125 -28.5625 L 27 -28.5625 Z M 27 0 "/></g></g></g><g fill="#ffffff" fill-opacity="1"><g transform="translate(161.477479, 336.334108)"><g><path d="M 29.515625 -14.3125 C 29.515625 -9.59375 28.34375 -5.960938 26 -3.421875 C 23.65625 -0.878906 20.296875 0.390625 15.921875 0.390625 C 11.546875 0.390625 8.1875 -0.878906 5.84375 -3.421875 C 3.5 -5.960938 2.328125 -9.609375 2.328125 -14.359375 C 2.328125 -19.109375 3.5 -22.734375 5.84375 -25.234375 C 8.195312 -27.742188 11.566406 -29 15.953125 -29 C 20.347656 -29 23.707031 -27.734375 26.03125 -25.203125 C 28.351562 -22.679688 29.515625 -19.050781 29.515625 -14.3125 Z M 8.671875 -14.3125 C 8.671875 -11.125 9.273438 -8.722656 10.484375 -7.109375 C 11.703125 -5.492188 13.515625 -4.6875 15.921875 -4.6875 C 20.753906 -4.6875 23.171875 -7.894531 23.171875 -14.3125 C 23.171875 -20.75 20.765625 -23.96875 15.953125 -23.96875 C 13.546875 -23.96875 11.726562 -23.15625 10.5 -21.53125 C 9.28125 -19.914062 8.671875 -17.507812 8.671875 -14.3125 Z M 8.671875 -14.3125 "/></g></g></g><g fill="#ffffff" fill-opacity="1"><g transform="translate(193.310306, 336.334108)"><g><path d="M 15.6875 0 L 8.8125 -22.40625 L 8.640625 -22.40625 C 8.878906 -17.84375 9 -14.800781 9 -13.28125 L 9 0 L 3.59375 0 L 3.59375 -28.5625 L 11.84375 -28.5625 L 18.59375 -6.71875 L 18.71875 -6.71875 L 25.875 -28.5625 L 34.125 -28.5625 L 34.125 0 L 28.484375 0 L 28.484375 -13.515625 C 28.484375 -14.148438 28.488281 -14.882812 28.5 -15.71875 C 28.519531 -16.550781 28.609375 -18.765625 28.765625 -22.359375 L 28.59375 -22.359375 L 21.234375 0 Z M 15.6875 0 "/></g></g></g><g fill="#ffffff" fill-opacity="1"><g transform="translate(231.021469, 336.334108)"><g><path d="M 20.046875 0 L 3.59375 0 L 3.59375 -28.5625 L 20.046875 -28.5625 L 20.046875 -23.59375 L 9.65625 -23.59375 L 9.65625 -17.328125 L 19.3125 -17.328125 L 19.3125 -12.359375 L 9.65625 -12.359375 L 9.65625 -5 L 20.046875 -5 Z M 20.046875 0 "/></g></g></g><g fill="#d40000" fill-opacity="1"><g transform="translate(69, 336.334108)"><g><path d="M 20.046875 0 L 3.59375 0 L 3.59375 -28.5625 L 20.046875 -28.5625 L 20.046875 -23.59375 L 9.65625 -23.59375 L 9.65625 -17.328125 L 19.3125 -17.328125 L 19.3125 -12.359375 L 9.65625 -12.359375 L 9.65625 -5 L 20.046875 -5 Z M 20.046875 0 "/></g></g></g><g fill="#d40000" fill-opacity="1"><g transform="translate(91.40016, 336.334108)"><g><path d="M 1.375 9.609375 C -0.15625 9.609375 -1.46875 9.445312 -2.5625 9.125 L -2.5625 4.4375 C -1.644531 4.6875 -0.710938 4.8125 0.234375 4.8125 C 1.234375 4.8125 1.960938 4.53125 2.421875 3.96875 C 2.890625 3.40625 3.125 2.578125 3.125 1.484375 L 3.125 -21.84375 L 9.078125 -21.84375 L 9.078125 2.359375 C 9.078125 4.679688 8.40625 6.46875 7.0625 7.71875 C 5.726562 8.976562 3.832031 9.609375 1.375 9.609375 Z M 2.875 -27.484375 C 2.875 -29.421875 3.953125 -30.390625 6.109375 -30.390625 C 8.273438 -30.390625 9.359375 -29.421875 9.359375 -27.484375 C 9.359375 -26.554688 9.085938 -25.832031 8.546875 -25.3125 C 8.003906 -24.800781 7.191406 -24.546875 6.109375 -24.546875 C 3.953125 -24.546875 2.875 -25.523438 2.875 -27.484375 Z M 2.875 -27.484375 "/></g></g></g><g fill="#d40000" fill-opacity="1"><g transform="translate(103.606004, 336.334108)"><g><path d="M 12.171875 -18.015625 C 10.910156 -18.015625 9.921875 -17.613281 9.203125 -16.8125 C 8.484375 -16.007812 8.070312 -14.875 7.96875 -13.40625 L 16.328125 -13.40625 C 16.304688 -14.875 15.921875 -16.007812 15.171875 -16.8125 C 14.429688 -17.613281 13.429688 -18.015625 12.171875 -18.015625 Z M 13.015625 0.390625 C 9.492188 0.390625 6.742188 -0.578125 4.765625 -2.515625 C 2.785156 -4.460938 1.796875 -7.210938 1.796875 -10.765625 C 1.796875 -14.421875 2.707031 -17.25 4.53125 -19.25 C 6.363281 -21.25 8.894531 -22.25 12.125 -22.25 C 15.21875 -22.25 17.625 -21.367188 19.34375 -19.609375 C 21.0625 -17.847656 21.921875 -15.421875 21.921875 -12.328125 L 21.921875 -9.4375 L 7.828125 -9.4375 C 7.898438 -7.738281 8.40625 -6.414062 9.34375 -5.46875 C 10.28125 -4.519531 11.59375 -4.046875 13.28125 -4.046875 C 14.59375 -4.046875 15.832031 -4.179688 17 -4.453125 C 18.175781 -4.722656 19.40625 -5.160156 20.6875 -5.765625 L 20.6875 -1.15625 C 19.644531 -0.632812 18.53125 -0.25 17.34375 0 C 16.15625 0.257812 14.710938 0.390625 13.015625 0.390625 Z M 13.015625 0.390625 "/></g></g></g><g fill="#d40000" fill-opacity="1"><g transform="translate(127.236507, 336.334108)"><g><path d="M 22.671875 0 L 16.71875 0 L 16.71875 -12.75 C 16.71875 -14.332031 16.453125 -15.515625 15.921875 -16.296875 C 15.398438 -17.085938 14.570312 -17.484375 13.4375 -17.484375 C 11.914062 -17.484375 10.804688 -16.921875 10.109375 -15.796875 C 9.421875 -14.679688 9.078125 -12.84375 9.078125 -10.28125 L 9.078125 0 L 3.125 0 L 3.125 -21.84375 L 7.671875 -21.84375 L 8.484375 -19.046875 L 8.8125 -19.046875 C 9.394531 -20.046875 10.238281 -20.828125 11.34375 -21.390625 C 12.457031 -21.960938 13.726562 -22.25 15.15625 -22.25 C 18.425781 -22.25 20.640625 -21.179688 21.796875 -19.046875 L 22.328125 -19.046875 C 22.910156 -20.054688 23.769531 -20.84375 24.90625 -21.40625 C 26.050781 -21.96875 27.335938 -22.25 28.765625 -22.25 C 31.242188 -22.25 33.117188 -21.613281 34.390625 -20.34375 C 35.660156 -19.070312 36.296875 -17.035156 36.296875 -14.234375 L 36.296875 0 L 30.3125 0 L 30.3125 -12.75 C 30.3125 -14.332031 30.046875 -15.515625 29.515625 -16.296875 C 28.992188 -17.085938 28.164062 -17.484375 27.03125 -17.484375 C 25.570312 -17.484375 24.476562 -16.960938 23.75 -15.921875 C 23.03125 -14.878906 22.671875 -13.222656 22.671875 -10.953125 Z M 22.671875 0 "/></g></g></g><g fill="#d40000" fill-opacity="1"><g transform="translate(166.510018, 336.334108)"><g><path d="M 15.125 0.390625 C 12.550781 0.390625 10.535156 -0.539062 9.078125 -2.40625 L 8.765625 -2.40625 C 8.972656 -0.582031 9.078125 0.472656 9.078125 0.765625 L 9.078125 9.609375 L 3.125 9.609375 L 3.125 -21.84375 L 7.96875 -21.84375 L 8.8125 -19 L 9.078125 -19 C 10.472656 -21.164062 12.539062 -22.25 15.28125 -22.25 C 17.851562 -22.25 19.867188 -21.25 21.328125 -19.25 C 22.785156 -17.257812 23.515625 -14.492188 23.515625 -10.953125 C 23.515625 -8.628906 23.171875 -6.609375 22.484375 -4.890625 C 21.804688 -3.171875 20.832031 -1.859375 19.5625 -0.953125 C 18.300781 -0.0546875 16.820312 0.390625 15.125 0.390625 Z M 13.359375 -17.484375 C 11.890625 -17.484375 10.816406 -17.03125 10.140625 -16.125 C 9.460938 -15.21875 9.109375 -13.722656 9.078125 -11.640625 L 9.078125 -11 C 9.078125 -8.65625 9.425781 -6.972656 10.125 -5.953125 C 10.820312 -4.941406 11.925781 -4.4375 13.4375 -4.4375 C 16.101562 -4.4375 17.4375 -6.632812 17.4375 -11.03125 C 17.4375 -13.1875 17.109375 -14.800781 16.453125 -15.875 C 15.796875 -16.945312 14.765625 -17.484375 13.359375 -17.484375 Z M 13.359375 -17.484375 "/></g></g></g><g fill="#d40000" fill-opacity="1"><g transform="translate(191.820044, 336.334108)"><g><path d="M 9.078125 0 L 3.125 0 L 3.125 -30.390625 L 9.078125 -30.390625 Z M 9.078125 0 "/></g></g></g><g fill="#d40000" fill-opacity="1"><g transform="translate(204.025888, 336.334108)"><g><path d="M 7.875 -10.953125 C 7.875 -8.796875 8.226562 -7.160156 8.9375 -6.046875 C 9.644531 -4.941406 10.800781 -4.390625 12.40625 -4.390625 C 13.988281 -4.390625 15.128906 -4.941406 15.828125 -6.046875 C 16.523438 -7.148438 16.875 -8.785156 16.875 -10.953125 C 16.875 -13.117188 16.519531 -14.738281 15.8125 -15.8125 C 15.113281 -16.894531 13.960938 -17.4375 12.359375 -17.4375 C 10.773438 -17.4375 9.628906 -16.898438 8.921875 -15.828125 C 8.222656 -14.753906 7.875 -13.128906 7.875 -10.953125 Z M 22.96875 -10.953125 C 22.96875 -7.398438 22.03125 -4.617188 20.15625 -2.609375 C 18.28125 -0.609375 15.671875 0.390625 12.328125 0.390625 C 10.234375 0.390625 8.382812 -0.0664062 6.78125 -0.984375 C 5.175781 -1.898438 3.941406 -3.21875 3.078125 -4.9375 C 2.222656 -6.65625 1.796875 -8.660156 1.796875 -10.953125 C 1.796875 -14.523438 2.726562 -17.300781 4.59375 -19.28125 C 6.457031 -21.257812 9.070312 -22.25 12.4375 -22.25 C 14.539062 -22.25 16.390625 -21.789062 17.984375 -20.875 C 19.585938 -19.96875 20.816406 -18.660156 21.671875 -16.953125 C 22.535156 -15.242188 22.96875 -13.242188 22.96875 -10.953125 Z M 22.96875 -10.953125 "/></g></g></g><g fill="#d40000" fill-opacity="1"><g transform="translate(228.789093, 336.334108)"><g/></g></g><g fill="#d40000" fill-opacity="1"><g transform="translate(239.178703, 336.334108)"><g><path d="M 15.6875 0 L 8.8125 -22.40625 L 8.640625 -22.40625 C 8.878906 -17.84375 9 -14.800781 9 -13.28125 L 9 0 L 3.59375 0 L 3.59375 -28.5625 L 11.84375 -28.5625 L 18.59375 -6.71875 L 18.71875 -6.71875 L 25.875 -28.5625 L 34.125 -28.5625 L 34.125 0 L 28.484375 0 L 28.484375 -13.515625 C 28.484375 -14.148438 28.488281 -14.882812 28.5 -15.71875 C 28.519531 -16.550781 28.609375 -18.765625 28.765625 -22.359375 L 28.59375 -22.359375 L 21.234375 0 Z M 15.6875 0 "/></g></g></g><g fill="#d40000" fill-opacity="1"><g transform="translate(276.889878, 336.334108)"><g><path d="M 15.71875 -23.921875 C 13.445312 -23.921875 11.6875 -23.066406 10.4375 -21.359375 C 9.1875 -19.648438 8.5625 -17.265625 8.5625 -14.203125 C 8.5625 -7.835938 10.945312 -4.65625 15.71875 -4.65625 C 17.726562 -4.65625 20.160156 -5.15625 23.015625 -6.15625 L 23.015625 -1.078125 C 20.671875 -0.0976562 18.050781 0.390625 15.15625 0.390625 C 11 0.390625 7.820312 -0.867188 5.625 -3.390625 C 3.425781 -5.910156 2.328125 -9.523438 2.328125 -14.234375 C 2.328125 -17.203125 2.863281 -19.800781 3.9375 -22.03125 C 5.019531 -24.269531 6.570312 -25.984375 8.59375 -27.171875 C 10.625 -28.367188 13 -28.96875 15.71875 -28.96875 C 18.5 -28.96875 21.285156 -28.296875 24.078125 -26.953125 L 22.125 -22.03125 C 21.0625 -22.539062 19.988281 -22.984375 18.90625 -23.359375 C 17.820312 -23.734375 16.757812 -23.921875 15.71875 -23.921875 Z M 15.71875 -23.921875 "/></g></g></g><g fill="#d40000" fill-opacity="1"><g transform="translate(302.375686, 336.334108)"><g><path d="M 3.59375 0 L 3.59375 -28.5625 L 9.65625 -28.5625 L 9.65625 0 Z M 3.59375 0 "/></g></g></g></svg>