<svg xmlns="http://www.w3.org/2000/svg" xmlns:xlink="http://www.w3.org/1999/xlink" width="500" zoomAndPan="magnify" viewBox="0 0 375 374.999991" height="500" preserveAspectRatio="xMidYMid meet" version="1.0"><defs><g/><clipPath id="56c23597e8"><path d="M 56.25 19.363281 L 318.75 19.363281 L 318.75 281.863281 L 56.25 281.863281 Z M 56.25 19.363281 " clip-rule="nonzero"/></clipPath><clipPath id="d1858cc889"><path d="M 56.25 19.363281 L 327.75 19.363281 L 327.75 290.863281 L 56.25 290.863281 Z M 56.25 19.363281 " clip-rule="nonzero"/></clipPath></defs><g clip-path="url(#56c23597e8)"><path fill="#ffffff" d="M 187.5 19.363281 C 115.011719 19.363281 56.25 78.125 56.25 150.613281 C 56.25 223.101562 115.011719 281.863281 187.5 281.863281 C 259.988281 281.863281 318.75 223.101562 318.75 150.613281 C 318.75 78.125 259.988281 19.363281 187.5 19.363281 Z M 263.820312 154.324219 C 260.078125 158.0625 254.558594 158.933594 249.984375 156.9375 L 249.984375 206.722656 C 249.984375 217.074219 241.59375 225.464844 231.238281 225.464844 L 143.761719 225.464844 C 133.40625 225.464844 125.015625 217.074219 125.015625 206.722656 L 125.015625 156.9375 C 120.441406 158.933594 114.921875 158.0625 111.179688 154.324219 C 106.300781 149.441406 106.300781 141.53125 111.179688 136.648438 L 178.664062 69.164062 C 183.542969 64.285156 191.457031 64.285156 196.335938 69.164062 L 263.820312 136.648438 C 268.699219 141.527344 268.699219 149.441406 263.820312 154.324219 Z M 263.820312 154.324219 " fill-opacity="1" fill-rule="nonzero"/></g><path fill="#ffffff" d="M 203.121094 156.734375 L 171.878906 156.734375 C 168.425781 156.734375 165.628906 159.53125 165.628906 162.980469 L 165.628906 200.472656 C 165.628906 203.921875 168.425781 206.722656 171.878906 206.722656 L 203.121094 206.722656 C 206.570312 206.722656 209.371094 203.921875 209.371094 200.472656 L 209.371094 162.980469 C 209.371094 159.53125 206.570312 156.734375 203.121094 156.734375 Z M 203.121094 156.734375 " fill-opacity="1" fill-rule="nonzero"/><path fill="#d40000" d="M 309.191406 48.761719 L 302.992188 42.5625 L 279.792969 65.761719 L 274.125 60.09375 L 267.925781 66.292969 L 279.792969 78.160156 L 309.191406 48.761719 " fill-opacity="1" fill-rule="nonzero"/><path fill="#d40000" d="M 129.890625 74.582031 L 122.871094 69.339844 L 99.601562 100.347656 L 94.414062 95.160156 L 88.214844 101.359375 L 100.5625 113.703125 L 129.890625 74.582031 " fill-opacity="1" fill-rule="nonzero"/><g clip-path="url(#d1858cc889)"><path fill="#d40000" d="M 319.242188 251.671875 L 275.410156 251.671875 L 275.410156 207.839844 L 308.285156 207.839844 L 319.242188 222.445312 Z M 319.242188 264.820312 C 319.242188 267.234375 317.273438 269.203125 314.859375 269.203125 L 309.859375 269.203125 C 308.953125 265.746094 307.035156 262.714844 304.414062 260.4375 L 319.242188 260.4375 Z M 292.941406 282.355469 C 288.113281 282.355469 284.175781 278.417969 284.175781 273.585938 C 284.175781 268.757812 288.113281 264.820312 292.941406 264.820312 C 297.769531 264.820312 301.707031 268.757812 301.707031 273.585938 C 301.707031 278.417969 297.769531 282.355469 292.941406 282.355469 Z M 276.027344 269.203125 L 239.726562 269.203125 C 238.820312 265.746094 236.902344 262.714844 234.28125 260.4375 L 281.46875 260.4375 C 278.851562 262.714844 276.933594 265.746094 276.027344 269.203125 Z M 222.8125 282.355469 C 217.984375 282.355469 214.042969 278.417969 214.042969 273.585938 C 214.042969 268.757812 217.984375 264.820312 222.8125 264.820312 C 227.640625 264.820312 231.578125 268.757812 231.578125 273.585938 C 231.578125 278.417969 227.640625 282.355469 222.8125 282.355469 Z M 205.894531 269.203125 L 200.894531 269.203125 C 198.480469 269.203125 196.511719 267.234375 196.511719 264.820312 L 196.511719 260.4375 L 211.339844 260.4375 C 208.71875 262.714844 206.800781 265.746094 205.894531 269.203125 Z M 187.746094 181.539062 L 187.746094 238.523438 L 82.550781 238.523438 L 82.550781 54.429688 L 100.886719 54.429688 C 102.703125 59.511719 107.53125 63.195312 113.230469 63.195312 L 174.597656 63.195312 C 180.296875 63.195312 185.125 59.511719 186.941406 54.429688 L 205.277344 54.429688 L 205.277344 181.539062 Z M 187.746094 251.671875 L 187.746094 256.054688 L 78.164062 256.054688 C 70.90625 256.054688 65.015625 250.164062 65.015625 242.90625 L 65.015625 50.046875 C 65.015625 42.785156 70.90625 36.894531 78.164062 36.894531 L 100.082031 36.894531 L 100.082031 45.660156 L 82.550781 45.660156 C 77.722656 45.660156 73.78125 49.601562 73.78125 54.429688 L 73.78125 238.523438 C 73.78125 243.351562 77.722656 247.289062 82.550781 247.289062 L 187.746094 247.289062 Z M 108.847656 32.511719 C 108.847656 30.097656 110.816406 28.128906 113.230469 28.128906 L 174.597656 28.128906 C 177.011719 28.128906 178.980469 30.097656 178.980469 32.511719 L 178.980469 50.046875 C 178.980469 52.460938 177.011719 54.429688 174.597656 54.429688 L 113.230469 54.429688 C 110.816406 54.429688 108.847656 52.460938 108.847656 50.046875 Z M 187.746094 36.894531 L 209.660156 36.894531 C 216.921875 36.894531 222.8125 42.785156 222.8125 50.046875 L 222.8125 181.539062 L 214.042969 181.539062 L 214.042969 54.429688 C 214.042969 49.601562 210.105469 45.660156 205.277344 45.660156 L 187.746094 45.660156 Z M 240.34375 190.308594 L 240.34375 199.074219 L 222.8125 199.074219 L 222.8125 190.308594 Z M 249.109375 207.839844 L 249.109375 190.308594 L 266.644531 190.308594 L 266.644531 251.671875 L 196.511719 251.671875 L 196.511719 190.308594 L 214.042969 190.308594 L 214.042969 207.839844 Z M 231.578125 63.195312 L 249.367188 63.195312 C 251.40625 81.445312 265.925781 95.964844 284.175781 98.003906 L 284.175781 199.074219 L 275.410156 199.074219 L 275.410156 181.539062 L 231.578125 181.539062 Z M 288.558594 28.128906 C 305.476562 28.128906 319.242188 41.894531 319.242188 58.8125 C 319.242188 75.726562 305.476562 89.492188 288.558594 89.492188 C 271.644531 89.492188 257.875 75.726562 257.875 58.8125 C 257.875 41.894531 271.644531 28.128906 288.558594 28.128906 Z M 292.941406 199.074219 L 292.941406 98.003906 C 312.632812 95.8125 328.007812 79.082031 328.007812 58.8125 C 328.007812 37.050781 310.304688 19.363281 288.558594 19.363281 C 268.285156 19.363281 251.558594 34.738281 249.367188 54.429688 L 231.578125 54.429688 L 231.578125 50.046875 C 231.578125 37.957031 221.75 28.128906 209.660156 28.128906 L 186.941406 28.128906 C 185.125 23.042969 180.296875 19.363281 174.597656 19.363281 L 113.230469 19.363281 C 107.53125 19.363281 102.703125 23.042969 100.886719 28.128906 L 78.164062 28.128906 C 66.078125 28.128906 56.25 37.957031 56.25 50.046875 L 56.25 242.90625 C 56.25 254.992188 66.078125 264.820312 78.164062 264.820312 L 187.746094 264.820312 C 187.746094 272.082031 193.636719 277.972656 200.894531 277.972656 L 205.894531 277.972656 C 207.863281 285.503906 214.660156 291.121094 222.8125 291.121094 C 230.960938 291.121094 237.757812 285.503906 239.726562 277.972656 L 276.027344 277.972656 C 277.996094 285.503906 284.792969 291.121094 292.941406 291.121094 C 301.09375 291.121094 307.890625 285.503906 309.859375 277.972656 L 314.859375 277.972656 C 322.117188 277.972656 328.007812 272.082031 328.007812 264.820312 L 328.007812 219.535156 L 312.667969 199.074219 L 292.941406 199.074219 " fill-opacity="1" fill-rule="nonzero"/></g><path fill="#d40000" d="M 139.53125 80.726562 L 196.511719 80.726562 L 196.511719 71.960938 L 139.53125 71.960938 L 139.53125 80.726562 " fill-opacity="1" fill-rule="nonzero"/><path fill="#d40000" d="M 187.746094 98.261719 L 196.511719 98.261719 L 196.511719 89.492188 L 187.746094 89.492188 L 187.746094 98.261719 " fill-opacity="1" fill-rule="nonzero"/><path fill="#d40000" d="M 178.980469 89.492188 L 139.53125 89.492188 L 139.53125 98.261719 L 178.980469 98.261719 L 178.980469 89.492188 " fill-opacity="1" fill-rule="nonzero"/><path fill="#d40000" d="M 139.53125 115.792969 L 196.511719 115.792969 L 196.511719 107.027344 L 139.53125 107.027344 L 139.53125 115.792969 " fill-opacity="1" fill-rule="nonzero"/><path fill="#d40000" d="M 129.890625 127.179688 L 122.871094 121.941406 L 99.601562 152.945312 L 94.414062 147.757812 L 88.214844 153.957031 L 100.5625 166.300781 L 129.890625 127.179688 " fill-opacity="1" fill-rule="nonzero"/><path fill="#d40000" d="M 139.53125 133.324219 L 196.511719 133.324219 L 196.511719 124.558594 L 139.53125 124.558594 L 139.53125 133.324219 " fill-opacity="1" fill-rule="nonzero"/><path fill="#d40000" d="M 187.746094 150.859375 L 196.511719 150.859375 L 196.511719 142.09375 L 187.746094 142.09375 L 187.746094 150.859375 " fill-opacity="1" fill-rule="nonzero"/><path fill="#d40000" d="M 178.980469 142.09375 L 139.53125 142.09375 L 139.53125 150.859375 L 178.980469 150.859375 L 178.980469 142.09375 " fill-opacity="1" fill-rule="nonzero"/><path fill="#d40000" d="M 139.53125 168.390625 L 196.511719 168.390625 L 196.511719 159.625 L 139.53125 159.625 L 139.53125 168.390625 " fill-opacity="1" fill-rule="nonzero"/><path fill="#d40000" d="M 100.082031 194.691406 L 135.148438 194.691406 L 135.148438 220.988281 L 100.082031 220.988281 Z M 91.316406 229.753906 L 143.914062 229.753906 L 143.914062 185.925781 L 91.316406 185.925781 L 91.316406 229.753906 " fill-opacity="1" fill-rule="nonzero"/><path fill="#d40000" d="M 152.679688 194.691406 L 178.980469 194.691406 L 178.980469 185.925781 L 152.679688 185.925781 L 152.679688 194.691406 " fill-opacity="1" fill-rule="nonzero"/><path fill="#d40000" d="M 152.679688 212.222656 L 178.980469 212.222656 L 178.980469 203.457031 L 152.679688 203.457031 L 152.679688 212.222656 " fill-opacity="1" fill-rule="nonzero"/><path fill="#d40000" d="M 152.679688 229.753906 L 178.980469 229.753906 L 178.980469 220.988281 L 152.679688 220.988281 L 152.679688 229.753906 " fill-opacity="1" fill-rule="nonzero"/><g fill="#ffffff" fill-opacity="1"><g transform="translate(130.874996, 336.334108)"><g><path d="M 27 0 L 20.953125 0 L 20.953125 -12.328125 L 9.65625 -12.328125 L 9.65625 0 L 3.59375 0 L 3.59375 -28.5625 L 9.65625 -28.5625 L 9.65625 -17.359375 L 20.953125 -17.359375 L 20.953125 -28.5625 L 27 -28.5625 Z M 27 0 "/></g></g></g><g fill="#ffffff" fill-opacity="1"><g transform="translate(161.477479, 336.334108)"><g><path d="M 29.515625 -14.3125 C 29.515625 -9.59375 28.34375 -5.960938 26 -3.421875 C 23.65625 -0.878906 20.296875 0.390625 15.921875 0.390625 C 11.546875 0.390625 8.1875 -0.878906 5.84375 -3.421875 C 3.5 -5.960938 2.328125 -9.609375 2.328125 -14.359375 C 2.328125 -19.109375 3.5 -22.734375 5.84375 -25.234375 C 8.195312 -27.742188 11.566406 -29 15.953125 -29 C 20.347656 -29 23.707031 -27.734375 26.03125 -25.203125 C 28.351562 -22.679688 29.515625 -19.050781 29.515625 -14.3125 Z M 8.671875 -14.3125 C 8.671875 -11.125 9.273438 -8.722656 10.484375 -7.109375 C 11.703125 -5.492188 13.515625 -4.6875 15.921875 -4.6875 C 20.753906 -4.6875 23.171875 -7.894531 23.171875 -14.3125 C 23.171875 -20.75 20.765625 -23.96875 15.953125 -23.96875 C 13.546875 -23.96875 11.726562 -23.15625 10.5 -21.53125 C 9.28125 -19.914062 8.671875 -17.507812 8.671875 -14.3125 Z M 8.671875 -14.3125 "/></g></g></g><g fill="#ffffff" fill-opacity="1"><g transform="translate(193.310306, 336.334108)"><g><path d="M 15.6875 0 L 8.8125 -22.40625 L 8.640625 -22.40625 C 8.878906 -17.84375 9 -14.800781 9 -13.28125 L 9 0 L 3.59375 0 L 3.59375 -28.5625 L 11.84375 -28.5625 L 18.59375 -6.71875 L 18.71875 -6.71875 L 25.875 -28.5625 L 34.125 -28.5625 L 34.125 0 L 28.484375 0 L 28.484375 -13.515625 C 28.484375 -14.148438 28.488281 -14.882812 28.5 -15.71875 C 28.519531 -16.550781 28.609375 -18.765625 28.765625 -22.359375 L 28.59375 -22.359375 L 21.234375 0 Z M 15.6875 0 "/></g></g></g><g fill="#ffffff" fill-opacity="1"><g transform="translate(231.021469, 336.334108)"><g><path d="M 20.046875 0 L 3.59375 0 L 3.59375 -28.5625 L 20.046875 -28.5625 L 20.046875 -23.59375 L 9.65625 -23.59375 L 9.65625 -17.328125 L 19.3125 -17.328125 L 19.3125 -12.359375 L 9.65625 -12.359375 L 9.65625 -5 L 20.046875 -5 Z M 20.046875 0 "/></g></g></g><g fill="#d40000" fill-opacity="1"><g transform="translate(69, 336.334108)"><g><path d="M 20.046875 0 L 3.59375 0 L 3.59375 -28.5625 L 20.046875 -28.5625 L 20.046875 -23.59375 L 9.65625 -23.59375 L 9.65625 -17.328125 L 19.3125 -17.328125 L 19.3125 -12.359375 L 9.65625 -12.359375 L 9.65625 -5 L 20.046875 -5 Z M 20.046875 0 "/></g></g></g><g fill="#d40000" fill-opacity="1"><g transform="translate(91.40016, 336.334108)"><g><path d="M 1.375 9.609375 C -0.15625 9.609375 -1.46875 9.445312 -2.5625 9.125 L -2.5625 4.4375 C -1.644531 4.6875 -0.710938 4.8125 0.234375 4.8125 C 1.234375 4.8125 1.960938 4.53125 2.421875 3.96875 C 2.890625 3.40625 3.125 2.578125 3.125 1.484375 L 3.125 -21.84375 L 9.078125 -21.84375 L 9.078125 2.359375 C 9.078125 4.679688 8.40625 6.46875 7.0625 7.71875 C 5.726562 8.976562 3.832031 9.609375 1.375 9.609375 Z M 2.875 -27.484375 C 2.875 -29.421875 3.953125 -30.390625 6.109375 -30.390625 C 8.273438 -30.390625 9.359375 -29.421875 9.359375 -27.484375 C 9.359375 -26.554688 9.085938 -25.832031 8.546875 -25.3125 C 8.003906 -24.800781 7.191406 -24.546875 6.109375 -24.546875 C 3.953125 -24.546875 2.875 -25.523438 2.875 -27.484375 Z M 2.875 -27.484375 "/></g></g></g><g fill="#d40000" fill-opacity="1"><g transform="translate(103.606004, 336.334108)"><g><path d="M 12.171875 -18.015625 C 10.910156 -18.015625 9.921875 -17.613281 9.203125 -16.8125 C 8.484375 -16.007812 8.070312 -14.875 7.96875 -13.40625 L 16.328125 -13.40625 C 16.304688 -14.875 15.921875 -16.007812 15.171875 -16.8125 C 14.429688 -17.613281 13.429688 -18.015625 12.171875 -18.015625 Z M 13.015625 0.390625 C 9.492188 0.390625 6.742188 -0.578125 4.765625 -2.515625 C 2.785156 -4.460938 1.796875 -7.210938 1.796875 -10.765625 C 1.796875 -14.421875 2.707031 -17.25 4.53125 -19.25 C 6.363281 -21.25 8.894531 -22.25 12.125 -22.25 C 15.21875 -22.25 17.625 -21.367188 19.34375 -19.609375 C 21.0625 -17.847656 21.921875 -15.421875 21.921875 -12.328125 L 21.921875 -9.4375 L 7.828125 -9.4375 C 7.898438 -7.738281 8.40625 -6.414062 9.34375 -5.46875 C 10.28125 -4.519531 11.59375 -4.046875 13.28125 -4.046875 C 14.59375 -4.046875 15.832031 -4.179688 17 -4.453125 C 18.175781 -4.722656 19.40625 -5.160156 20.6875 -5.765625 L 20.6875 -1.15625 C 19.644531 -0.632812 18.53125 -0.25 17.34375 0 C 16.15625 0.257812 14.710938 0.390625 13.015625 0.390625 Z M 13.015625 0.390625 "/></g></g></g><g fill="#d40000" fill-opacity="1"><g transform="translate(127.236507, 336.334108)"><g><path d="M 22.671875 0 L 16.71875 0 L 16.71875 -12.75 C 16.71875 -14.332031 16.453125 -15.515625 15.921875 -16.296875 C 15.398438 -17.085938 14.570312 -17.484375 13.4375 -17.484375 C 11.914062 -17.484375 10.804688 -16.921875 10.109375 -15.796875 C 9.421875 -14.679688 9.078125 -12.84375 9.078125 -10.28125 L 9.078125 0 L 3.125 0 L 3.125 -21.84375 L 7.671875 -21.84375 L 8.484375 -19.046875 L 8.8125 -19.046875 C 9.394531 -20.046875 10.238281 -20.828125 11.34375 -21.390625 C 12.457031 -21.960938 13.726562 -22.25 15.15625 -22.25 C 18.425781 -22.25 20.640625 -21.179688 21.796875 -19.046875 L 22.328125 -19.046875 C 22.910156 -20.054688 23.769531 -20.84375 24.90625 -21.40625 C 26.050781 -21.96875 27.335938 -22.25 28.765625 -22.25 C 31.242188 -22.25 33.117188 -21.613281 34.390625 -20.34375 C 35.660156 -19.070312 36.296875 -17.035156 36.296875 -14.234375 L 36.296875 0 L 30.3125 0 L 30.3125 -12.75 C 30.3125 -14.332031 30.046875 -15.515625 29.515625 -16.296875 C 28.992188 -17.085938 28.164062 -17.484375 27.03125 -17.484375 C 25.570312 -17.484375 24.476562 -16.960938 23.75 -15.921875 C 23.03125 -14.878906 22.671875 -13.222656 22.671875 -10.953125 Z M 22.671875 0 "/></g></g></g><g fill="#d40000" fill-opacity="1"><g transform="translate(166.510018, 336.334108)"><g><path d="M 15.125 0.390625 C 12.550781 0.390625 10.535156 -0.539062 9.078125 -2.40625 L 8.765625 -2.40625 C 8.972656 -0.582031 9.078125 0.472656 9.078125 0.765625 L 9.078125 9.609375 L 3.125 9.609375 L 3.125 -21.84375 L 7.96875 -21.84375 L 8.8125 -19 L 9.078125 -19 C 10.472656 -21.164062 12.539062 -22.25 15.28125 -22.25 C 17.851562 -22.25 19.867188 -21.25 21.328125 -19.25 C 22.785156 -17.257812 23.515625 -14.492188 23.515625 -10.953125 C 23.515625 -8.628906 23.171875 -6.609375 22.484375 -4.890625 C 21.804688 -3.171875 20.832031 -1.859375 19.5625 -0.953125 C 18.300781 -0.0546875 16.820312 0.390625 15.125 0.390625 Z M 13.359375 -17.484375 C 11.890625 -17.484375 10.816406 -17.03125 10.140625 -16.125 C 9.460938 -15.21875 9.109375 -13.722656 9.078125 -11.640625 L 9.078125 -11 C 9.078125 -8.65625 9.425781 -6.972656 10.125 -5.953125 C 10.820312 -4.941406 11.925781 -4.4375 13.4375 -4.4375 C 16.101562 -4.4375 17.4375 -6.632812 17.4375 -11.03125 C 17.4375 -13.1875 17.109375 -14.800781 16.453125 -15.875 C 15.796875 -16.945312 14.765625 -17.484375 13.359375 -17.484375 Z M 13.359375 -17.484375 "/></g></g></g><g fill="#d40000" fill-opacity="1"><g transform="translate(191.820044, 336.334108)"><g><path d="M 9.078125 0 L 3.125 0 L 3.125 -30.390625 L 9.078125 -30.390625 Z M 9.078125 0 "/></g></g></g><g fill="#d40000" fill-opacity="1"><g transform="translate(204.025888, 336.334108)"><g><path d="M 7.875 -10.953125 C 7.875 -8.796875 8.226562 -7.160156 8.9375 -6.046875 C 9.644531 -4.941406 10.800781 -4.390625 12.40625 -4.390625 C 13.988281 -4.390625 15.128906 -4.941406 15.828125 -6.046875 C 16.523438 -7.148438 16.875 -8.785156 16.875 -10.953125 C 16.875 -13.117188 16.519531 -14.738281 15.8125 -15.8125 C 15.113281 -16.894531 13.960938 -17.4375 12.359375 -17.4375 C 10.773438 -17.4375 9.628906 -16.898438 8.921875 -15.828125 C 8.222656 -14.753906 7.875 -13.128906 7.875 -10.953125 Z M 22.96875 -10.953125 C 22.96875 -7.398438 22.03125 -4.617188 20.15625 -2.609375 C 18.28125 -0.609375 15.671875 0.390625 12.328125 0.390625 C 10.234375 0.390625 8.382812 -0.0664062 6.78125 -0.984375 C 5.175781 -1.898438 3.941406 -3.21875 3.078125 -4.9375 C 2.222656 -6.65625 1.796875 -8.660156 1.796875 -10.953125 C 1.796875 -14.523438 2.726562 -17.300781 4.59375 -19.28125 C 6.457031 -21.257812 9.070312 -22.25 12.4375 -22.25 C 14.539062 -22.25 16.390625 -21.789062 17.984375 -20.875 C 19.585938 -19.96875 20.816406 -18.660156 21.671875 -16.953125 C 22.535156 -15.242188 22.96875 -13.242188 22.96875 -10.953125 Z M 22.96875 -10.953125 "/></g></g></g><g fill="#d40000" fill-opacity="1"><g transform="translate(228.789093, 336.334108)"><g/></g></g><g fill="#d40000" fill-opacity="1"><g transform="translate(239.178703, 336.334108)"><g><path d="M 15.6875 0 L 8.8125 -22.40625 L 8.640625 -22.40625 C 8.878906 -17.84375 9 -14.800781 9 -13.28125 L 9 0 L 3.59375 0 L 3.59375 -28.5625 L 11.84375 -28.5625 L 18.59375 -6.71875 L 18.71875 -6.71875 L 25.875 -28.5625 L 34.125 -28.5625 L 34.125 0 L 28.484375 0 L 28.484375 -13.515625 C 28.484375 -14.148438 28.488281 -14.882812 28.5 -15.71875 C 28.519531 -16.550781 28.609375 -18.765625 28.765625 -22.359375 L 28.59375 -22.359375 L 21.234375 0 Z M 15.6875 0 "/></g></g></g><g fill="#d40000" fill-opacity="1"><g transform="translate(276.889878, 336.334108)"><g><path d="M 15.71875 -23.921875 C 13.445312 -23.921875 11.6875 -23.066406 10.4375 -21.359375 C 9.1875 -19.648438 8.5625 -17.265625 8.5625 -14.203125 C 8.5625 -7.835938 10.945312 -4.65625 15.71875 -4.65625 C 17.726562 -4.65625 20.160156 -5.15625 23.015625 -6.15625 L 23.015625 -1.078125 C 20.671875 -0.0976562 18.050781 0.390625 15.15625 0.390625 C 11 0.390625 7.820312 -0.867188 5.625 -3.390625 C 3.425781 -5.910156 2.328125 -9.523438 2.328125 -14.234375 C 2.328125 -17.203125 2.863281 -19.800781 3.9375 -22.03125 C 5.019531 -24.269531 6.570312 -25.984375 8.59375 -27.171875 C 10.625 -28.367188 13 -28.96875 15.71875 -28.96875 C 18.5 -28.96875 21.285156 -28.296875 24.078125 -26.953125 L 22.125 -22.03125 C 21.0625 -22.539062 19.988281 -22.984375 18.90625 -23.359375 C 17.820312 -23.734375 16.757812 -23.921875 15.71875 -23.921875 Z M 15.71875 -23.921875 "/></g></g></g><g fill="#d40000" fill-opacity="1"><g transform="translate(302.375686, 336.334108)"><g><path d="M 3.59375 0 L 3.59375 -28.5625 L 9.65625 -28.5625 L 9.65625 0 Z M 3.59375 0 "/></g></g></g></svg>