<svg xmlns="http://www.w3.org/2000/svg" xmlns:xlink="http://www.w3.org/1999/xlink" width="500" zoomAndPan="magnify" viewBox="0 0 375 374.999991" height="500" preserveAspectRatio="xMidYMid meet" version="1.0"><defs><g/><clipPath id="8afbda3494"><path d="M 56.25 19.363281 L 318.75 19.363281 L 318.75 281.863281 L 56.25 281.863281 Z M 56.25 19.363281 " clip-rule="nonzero"/></clipPath><clipPath id="49da687fcc"><path d="M 56.25 19.363281 L 327.75 19.363281 L 327.75 290.863281 L 56.25 290.863281 Z M 56.25 19.363281 " clip-rule="nonzero"/></clipPath></defs><g clip-path="url(#8afbda3494)"><path fill="#ffffff" d="M 187.5 19.363281 C 115.011719 19.363281 56.25 78.125 56.25 150.613281 C 56.25 223.101562 115.011719 281.863281 187.5 281.863281 C 259.988281 281.863281 318.75 223.101562 318.75 150.613281 C 318.75 78.125 259.988281 19.363281 187.5 19.363281 Z M 263.820312 154.324219 C 260.078125 158.0625 254.558594 158.933594 249.984375 156.9375 L 249.984375 206.722656 C 249.984375 217.074219 241.59375 225.464844 231.238281 225.464844 L 143.761719 225.464844 C 133.40625 225.464844 125.015625 217.074219 125.015625 206.722656 L 125.015625 156.9375 C 120.441406 158.933594 114.921875 158.0625 111.179688 154.324219 C 106.300781 149.441406 106.300781 141.53125 111.179688 136.648438 L 178.664062 69.164062 C 183.542969 64.285156 191.457031 64.285156 196.335938 69.164062 L 263.820312 136.648438 C 268.699219 141.527344 268.699219 149.441406 263.820312 154.324219 Z M 263.820312 154.324219 " fill-opacity="1" fill-rule="nonzero"/></g><path fill="#ffffff" d="M 203.121094 156.734375 L 171.878906 156.734375 C 168.425781 156.734375 165.628906 159.53125 165.628906 162.980469 L 165.628906 200.472656 C 165.628906 203.921875 168.425781 206.722656 171.878906 206.722656 L 203.121094 206.722656 C 206.570312 206.722656 209.371094 203.921875 209.371094 200.472656 L 209.371094 162.980469 C 209.371094 159.53125 206.570312 156.734375 203.121094 156.734375 Z M 203.121094 156.734375 " fill-opacity="1" fill-rule="nonzero"/><path fill="#000000" d="M 308.949219 48.734375 L 302.757812 42.539062 L 279.582031 65.71875 L 273.917969 60.058594 L 267.726562 66.25 L 279.582031 78.101562 L 308.949219 48.734375 " fill-opacity="1" fill-rule="nonzero"/><path fill="#000000" d="M 129.820312 74.527344 L 122.808594 69.292969 L 99.5625 100.273438 L 94.378906 95.089844 L 88.1875 101.28125 L 100.519531 113.613281 L 129.820312 74.527344 " fill-opacity="1" fill-rule="nonzero"/><g clip-path="url(#49da687fcc)"><path fill="#000000" d="M 318.992188 251.453125 L 275.203125 251.453125 L 275.203125 207.660156 L 308.042969 207.660156 L 318.992188 222.253906 Z M 318.992188 264.589844 C 318.992188 267 317.023438 268.96875 314.613281 268.96875 L 309.617188 268.96875 C 308.710938 265.511719 306.796875 262.484375 304.179688 260.210938 L 318.992188 260.210938 Z M 292.71875 282.105469 C 287.894531 282.105469 283.960938 278.171875 283.960938 273.347656 C 283.960938 268.523438 287.894531 264.589844 292.71875 264.589844 C 297.542969 264.589844 301.476562 268.523438 301.476562 273.347656 C 301.476562 278.171875 297.542969 282.105469 292.71875 282.105469 Z M 275.816406 268.96875 L 239.554688 268.96875 C 238.648438 265.511719 236.730469 262.484375 234.113281 260.210938 L 281.257812 260.210938 C 278.640625 262.484375 276.722656 265.511719 275.816406 268.96875 Z M 222.652344 282.105469 C 217.828125 282.105469 213.894531 278.171875 213.894531 273.347656 C 213.894531 268.523438 217.828125 264.589844 222.652344 264.589844 C 227.476562 264.589844 231.410156 268.523438 231.410156 273.347656 C 231.410156 278.171875 227.476562 282.105469 222.652344 282.105469 Z M 205.753906 268.96875 L 200.757812 268.96875 C 198.347656 268.96875 196.378906 267 196.378906 264.589844 L 196.378906 260.210938 L 211.191406 260.210938 C 208.574219 262.484375 206.660156 265.511719 205.753906 268.96875 Z M 187.621094 181.386719 L 187.621094 238.3125 L 82.523438 238.3125 L 82.523438 54.394531 L 100.84375 54.394531 C 102.65625 59.476562 107.480469 63.152344 113.175781 63.152344 L 174.484375 63.152344 C 180.179688 63.152344 185.003906 59.476562 186.816406 54.394531 L 205.136719 54.394531 L 205.136719 181.386719 Z M 187.621094 251.453125 L 187.621094 255.832031 L 78.144531 255.832031 C 70.890625 255.832031 65.007812 249.945312 65.007812 242.691406 L 65.007812 50.015625 C 65.007812 42.761719 70.890625 36.878906 78.144531 36.878906 L 100.039062 36.878906 L 100.039062 45.636719 L 82.523438 45.636719 C 77.699219 45.636719 73.765625 49.570312 73.765625 54.394531 L 73.765625 238.3125 C 73.765625 243.136719 77.699219 247.074219 82.523438 247.074219 L 187.621094 247.074219 Z M 108.796875 32.5 C 108.796875 30.085938 110.765625 28.121094 113.175781 28.121094 L 174.484375 28.121094 C 176.894531 28.121094 178.863281 30.085938 178.863281 32.5 L 178.863281 50.015625 C 178.863281 52.429688 176.894531 54.394531 174.484375 54.394531 L 113.175781 54.394531 C 110.765625 54.394531 108.796875 52.429688 108.796875 50.015625 Z M 187.621094 36.878906 L 209.515625 36.878906 C 216.769531 36.878906 222.652344 42.761719 222.652344 50.015625 L 222.652344 181.386719 L 213.894531 181.386719 L 213.894531 54.394531 C 213.894531 49.570312 209.960938 45.636719 205.136719 45.636719 L 187.621094 45.636719 Z M 240.167969 190.144531 L 240.167969 198.902344 L 222.652344 198.902344 L 222.652344 190.144531 Z M 248.925781 207.660156 L 248.925781 190.144531 L 266.445312 190.144531 L 266.445312 251.453125 L 196.378906 251.453125 L 196.378906 190.144531 L 213.894531 190.144531 L 213.894531 207.660156 Z M 231.410156 63.152344 L 249.183594 63.152344 C 251.21875 81.386719 265.726562 95.894531 283.960938 97.929688 L 283.960938 198.902344 L 275.203125 198.902344 L 275.203125 181.386719 L 231.410156 181.386719 Z M 288.339844 28.121094 C 305.238281 28.121094 318.992188 41.875 318.992188 58.773438 C 318.992188 75.675781 305.238281 89.425781 288.339844 89.425781 C 271.4375 89.425781 257.683594 75.675781 257.683594 58.773438 C 257.683594 41.875 271.4375 28.121094 288.339844 28.121094 Z M 292.71875 198.902344 L 292.71875 97.929688 C 312.390625 95.738281 327.75 79.027344 327.75 58.773438 C 327.75 37.03125 310.0625 19.363281 288.339844 19.363281 C 268.085938 19.363281 251.375 34.722656 249.183594 54.394531 L 231.410156 54.394531 L 231.410156 50.015625 C 231.410156 37.9375 221.59375 28.121094 209.515625 28.121094 L 186.816406 28.121094 C 185.003906 23.039062 180.179688 19.363281 174.484375 19.363281 L 113.175781 19.363281 C 107.480469 19.363281 102.65625 23.039062 100.84375 28.121094 L 78.144531 28.121094 C 66.070312 28.121094 56.25 37.9375 56.25 50.015625 L 56.25 242.691406 C 56.25 254.769531 66.070312 264.589844 78.144531 264.589844 L 187.621094 264.589844 C 187.621094 271.839844 193.503906 277.726562 200.757812 277.726562 L 205.753906 277.726562 C 207.71875 285.253906 214.511719 290.863281 222.652344 290.863281 C 230.796875 290.863281 237.585938 285.253906 239.554688 277.726562 L 275.816406 277.726562 C 277.785156 285.253906 284.574219 290.863281 292.71875 290.863281 C 300.859375 290.863281 307.652344 285.253906 309.617188 277.726562 L 314.613281 277.726562 C 321.867188 277.726562 327.75 271.839844 327.75 264.589844 L 327.75 219.34375 L 312.421875 198.902344 L 292.71875 198.902344 " fill-opacity="1" fill-rule="nonzero"/></g><path fill="#000000" d="M 139.453125 80.667969 L 196.378906 80.667969 L 196.378906 71.910156 L 139.453125 71.910156 L 139.453125 80.667969 " fill-opacity="1" fill-rule="nonzero"/><path fill="#000000" d="M 187.621094 98.183594 L 196.378906 98.183594 L 196.378906 89.425781 L 187.621094 89.425781 L 187.621094 98.183594 " fill-opacity="1" fill-rule="nonzero"/><path fill="#000000" d="M 178.863281 89.425781 L 139.453125 89.425781 L 139.453125 98.183594 L 178.863281 98.183594 L 178.863281 89.425781 " fill-opacity="1" fill-rule="nonzero"/><path fill="#000000" d="M 139.453125 115.703125 L 196.378906 115.703125 L 196.378906 106.941406 L 139.453125 106.941406 L 139.453125 115.703125 " fill-opacity="1" fill-rule="nonzero"/><path fill="#000000" d="M 129.820312 127.078125 L 122.808594 121.84375 L 99.5625 152.820312 L 94.378906 147.636719 L 88.1875 153.828125 L 100.519531 166.164062 L 129.820312 127.078125 " fill-opacity="1" fill-rule="nonzero"/><path fill="#000000" d="M 139.453125 133.21875 L 196.378906 133.21875 L 196.378906 124.460938 L 139.453125 124.460938 L 139.453125 133.21875 " fill-opacity="1" fill-rule="nonzero"/><path fill="#000000" d="M 187.621094 150.734375 L 196.378906 150.734375 L 196.378906 141.976562 L 187.621094 141.976562 L 187.621094 150.734375 " fill-opacity="1" fill-rule="nonzero"/><path fill="#000000" d="M 178.863281 141.976562 L 139.453125 141.976562 L 139.453125 150.734375 L 178.863281 150.734375 L 178.863281 141.976562 " fill-opacity="1" fill-rule="nonzero"/><path fill="#000000" d="M 139.453125 168.25 L 196.378906 168.25 L 196.378906 159.492188 L 139.453125 159.492188 L 139.453125 168.25 " fill-opacity="1" fill-rule="nonzero"/><path fill="#000000" d="M 100.039062 194.523438 L 135.074219 194.523438 L 135.074219 220.796875 L 100.039062 220.796875 Z M 91.28125 229.554688 L 143.832031 229.554688 L 143.832031 185.765625 L 91.28125 185.765625 L 91.28125 229.554688 " fill-opacity="1" fill-rule="nonzero"/><path fill="#000000" d="M 152.589844 194.523438 L 178.863281 194.523438 L 178.863281 185.765625 L 152.589844 185.765625 L 152.589844 194.523438 " fill-opacity="1" fill-rule="nonzero"/><path fill="#000000" d="M 152.589844 212.039062 L 178.863281 212.039062 L 178.863281 203.28125 L 152.589844 203.28125 L 152.589844 212.039062 " fill-opacity="1" fill-rule="nonzero"/><path fill="#000000" d="M 152.589844 229.554688 L 178.863281 229.554688 L 178.863281 220.796875 L 152.589844 220.796875 L 152.589844 229.554688 " fill-opacity="1" fill-rule="nonzero"/><g fill="#ffffff" fill-opacity="1"><g transform="translate(130.874996, 336.334108)"><g><path d="M 27 0 L 20.953125 0 L 20.953125 -12.328125 L 9.65625 -12.328125 L 9.65625 0 L 3.59375 0 L 3.59375 -28.5625 L 9.65625 -28.5625 L 9.65625 -17.359375 L 20.953125 -17.359375 L 20.953125 -28.5625 L 27 -28.5625 Z M 27 0 "/></g></g></g><g fill="#ffffff" fill-opacity="1"><g transform="translate(161.477479, 336.334108)"><g><path d="M 29.515625 -14.3125 C 29.515625 -9.59375 28.34375 -5.960938 26 -3.421875 C 23.65625 -0.878906 20.296875 0.390625 15.921875 0.390625 C 11.546875 0.390625 8.1875 -0.878906 5.84375 -3.421875 C 3.5 -5.960938 2.328125 -9.609375 2.328125 -14.359375 C 2.328125 -19.109375 3.5 -22.734375 5.84375 -25.234375 C 8.195312 -27.742188 11.566406 -29 15.953125 -29 C 20.347656 -29 23.707031 -27.734375 26.03125 -25.203125 C 28.351562 -22.679688 29.515625 -19.050781 29.515625 -14.3125 Z M 8.671875 -14.3125 C 8.671875 -11.125 9.273438 -8.722656 10.484375 -7.109375 C 11.703125 -5.492188 13.515625 -4.6875 15.921875 -4.6875 C 20.753906 -4.6875 23.171875 -7.894531 23.171875 -14.3125 C 23.171875 -20.75 20.765625 -23.96875 15.953125 -23.96875 C 13.546875 -23.96875 11.726562 -23.15625 10.5 -21.53125 C 9.28125 -19.914062 8.671875 -17.507812 8.671875 -14.3125 Z M 8.671875 -14.3125 "/></g></g></g><g fill="#ffffff" fill-opacity="1"><g transform="translate(193.310306, 336.334108)"><g><path d="M 15.6875 0 L 8.8125 -22.40625 L 8.640625 -22.40625 C 8.878906 -17.84375 9 -14.800781 9 -13.28125 L 9 0 L 3.59375 0 L 3.59375 -28.5625 L 11.84375 -28.5625 L 18.59375 -6.71875 L 18.71875 -6.71875 L 25.875 -28.5625 L 34.125 -28.5625 L 34.125 0 L 28.484375 0 L 28.484375 -13.515625 C 28.484375 -14.148438 28.488281 -14.882812 28.5 -15.71875 C 28.519531 -16.550781 28.609375 -18.765625 28.765625 -22.359375 L 28.59375 -22.359375 L 21.234375 0 Z M 15.6875 0 "/></g></g></g><g fill="#ffffff" fill-opacity="1"><g transform="translate(231.021469, 336.334108)"><g><path d="M 20.046875 0 L 3.59375 0 L 3.59375 -28.5625 L 20.046875 -28.5625 L 20.046875 -23.59375 L 9.65625 -23.59375 L 9.65625 -17.328125 L 19.3125 -17.328125 L 19.3125 -12.359375 L 9.65625 -12.359375 L 9.65625 -5 L 20.046875 -5 Z M 20.046875 0 "/></g></g></g><g fill="#000000" fill-opacity="1"><g transform="translate(153.773432, 336.334108)"><g><path d="M 15.6875 0 L 8.8125 -22.40625 L 8.640625 -22.40625 C 8.878906 -17.84375 9 -14.800781 9 -13.28125 L 9 0 L 3.59375 0 L 3.59375 -28.5625 L 11.84375 -28.5625 L 18.59375 -6.71875 L 18.71875 -6.71875 L 25.875 -28.5625 L 34.125 -28.5625 L 34.125 0 L 28.484375 0 L 28.484375 -13.515625 C 28.484375 -14.148438 28.488281 -14.882812 28.5 -15.71875 C 28.519531 -16.550781 28.609375 -18.765625 28.765625 -22.359375 L 28.59375 -22.359375 L 21.234375 0 Z M 15.6875 0 "/></g></g></g><g fill="#000000" fill-opacity="1"><g transform="translate(191.484596, 336.334108)"><g><path d="M 15.71875 -23.921875 C 13.445312 -23.921875 11.6875 -23.066406 10.4375 -21.359375 C 9.1875 -19.648438 8.5625 -17.265625 8.5625 -14.203125 C 8.5625 -7.835938 10.945312 -4.65625 15.71875 -4.65625 C 17.726562 -4.65625 20.160156 -5.15625 23.015625 -6.15625 L 23.015625 -1.078125 C 20.671875 -0.0976562 18.050781 0.390625 15.15625 0.390625 C 11 0.390625 7.820312 -0.867188 5.625 -3.390625 C 3.425781 -5.910156 2.328125 -9.523438 2.328125 -14.234375 C 2.328125 -17.203125 2.863281 -19.800781 3.9375 -22.03125 C 5.019531 -24.269531 6.570312 -25.984375 8.59375 -27.171875 C 10.625 -28.367188 13 -28.96875 15.71875 -28.96875 C 18.5 -28.96875 21.285156 -28.296875 24.078125 -26.953125 L 22.125 -22.03125 C 21.0625 -22.539062 19.988281 -22.984375 18.90625 -23.359375 C 17.820312 -23.734375 16.757812 -23.921875 15.71875 -23.921875 Z M 15.71875 -23.921875 "/></g></g></g><g fill="#000000" fill-opacity="1"><g transform="translate(216.970392, 336.334108)"><g><path d="M 3.59375 0 L 3.59375 -28.5625 L 9.65625 -28.5625 L 9.65625 0 Z M 3.59375 0 "/></g></g></g></svg>