<svg xmlns="http://www.w3.org/2000/svg" xmlns:xlink="http://www.w3.org/1999/xlink" width="500" zoomAndPan="magnify" viewBox="0 0 375 374.999991" height="500" preserveAspectRatio="xMidYMid meet" version="1.0"><defs><g/><clipPath id="132efea222"><path d="M 51.621094 18.253906 L 323.121094 18.253906 L 323.121094 289.753906 L 51.621094 289.753906 Z M 51.621094 18.253906 " clip-rule="nonzero"/></clipPath></defs><path fill="#000000" d="M 304.320312 47.625 L 298.128906 41.429688 L 274.949219 64.609375 L 269.289062 58.949219 L 263.09375 65.140625 L 274.949219 76.992188 L 304.320312 47.625 " fill-opacity="1" fill-rule="nonzero"/><path fill="#000000" d="M 125.191406 73.417969 L 118.175781 68.183594 L 94.929688 99.164062 L 89.746094 93.980469 L 83.554688 100.171875 L 95.886719 112.503906 L 125.191406 73.417969 " fill-opacity="1" fill-rule="nonzero"/><g clip-path="url(#132efea222)"><path fill="#000000" d="M 314.359375 250.34375 L 270.570312 250.34375 L 270.570312 206.550781 L 303.414062 206.550781 L 314.359375 221.144531 Z M 314.359375 263.480469 C 314.359375 265.890625 312.394531 267.859375 309.980469 267.859375 L 304.988281 267.859375 C 304.082031 264.402344 302.164062 261.375 299.546875 259.101562 L 314.359375 259.101562 Z M 288.085938 280.996094 C 283.261719 280.996094 279.328125 277.0625 279.328125 272.238281 C 279.328125 267.414062 283.261719 263.480469 288.085938 263.480469 C 292.910156 263.480469 296.84375 267.414062 296.84375 272.238281 C 296.84375 277.0625 292.910156 280.996094 288.085938 280.996094 Z M 271.1875 267.859375 L 234.921875 267.859375 C 234.015625 264.402344 232.101562 261.375 229.484375 259.101562 L 276.625 259.101562 C 274.007812 261.375 272.09375 264.402344 271.1875 267.859375 Z M 218.023438 280.996094 C 213.199219 280.996094 209.265625 277.0625 209.265625 272.238281 C 209.265625 267.414062 213.199219 263.480469 218.023438 263.480469 C 222.847656 263.480469 226.78125 267.414062 226.78125 272.238281 C 226.78125 277.0625 222.847656 280.996094 218.023438 280.996094 Z M 201.121094 267.859375 L 196.128906 267.859375 C 193.714844 267.859375 191.75 265.890625 191.75 263.480469 L 191.75 259.101562 L 206.5625 259.101562 C 203.945312 261.375 202.027344 264.402344 201.121094 267.859375 Z M 182.988281 180.277344 L 182.988281 237.203125 L 77.894531 237.203125 L 77.894531 53.285156 L 96.214844 53.285156 C 98.027344 58.367188 102.851562 62.042969 108.546875 62.042969 L 169.851562 62.042969 C 175.550781 62.042969 180.371094 58.367188 182.1875 53.285156 L 200.507812 53.285156 L 200.507812 180.277344 Z M 182.988281 250.34375 L 182.988281 254.722656 L 73.515625 254.722656 C 66.261719 254.722656 60.378906 248.835938 60.378906 241.582031 L 60.378906 48.90625 C 60.378906 41.652344 66.261719 35.769531 73.515625 35.769531 L 95.410156 35.769531 L 95.410156 44.527344 L 77.894531 44.527344 C 73.070312 44.527344 69.136719 48.460938 69.136719 53.285156 L 69.136719 237.203125 C 69.136719 242.027344 73.070312 245.960938 77.894531 245.960938 L 182.988281 245.960938 Z M 104.167969 31.390625 C 104.167969 28.976562 106.132812 27.011719 108.546875 27.011719 L 169.851562 27.011719 C 172.265625 27.011719 174.230469 28.976562 174.230469 31.390625 L 174.230469 48.90625 C 174.230469 51.316406 172.265625 53.285156 169.851562 53.285156 L 108.546875 53.285156 C 106.132812 53.285156 104.167969 51.316406 104.167969 48.90625 Z M 182.988281 35.769531 L 204.886719 35.769531 C 212.136719 35.769531 218.023438 41.652344 218.023438 48.90625 L 218.023438 180.277344 L 209.265625 180.277344 L 209.265625 53.285156 C 209.265625 48.460938 205.328125 44.527344 200.507812 44.527344 L 182.988281 44.527344 Z M 235.539062 189.035156 L 235.539062 197.792969 L 218.023438 197.792969 L 218.023438 189.035156 Z M 244.296875 206.550781 L 244.296875 189.035156 L 261.8125 189.035156 L 261.8125 250.34375 L 191.75 250.34375 L 191.75 189.035156 L 209.265625 189.035156 L 209.265625 206.550781 Z M 226.78125 62.042969 L 244.554688 62.042969 C 246.589844 80.277344 261.09375 94.785156 279.328125 96.820312 L 279.328125 197.792969 L 270.570312 197.792969 L 270.570312 180.277344 L 226.78125 180.277344 Z M 283.707031 27.011719 C 300.609375 27.011719 314.359375 40.765625 314.359375 57.664062 C 314.359375 74.566406 300.609375 88.316406 283.707031 88.316406 C 266.808594 88.316406 253.054688 74.566406 253.054688 57.664062 C 253.054688 40.765625 266.808594 27.011719 283.707031 27.011719 Z M 288.085938 197.792969 L 288.085938 96.820312 C 307.757812 94.628906 323.121094 77.917969 323.121094 57.664062 C 323.121094 35.921875 305.433594 18.253906 283.707031 18.253906 C 263.453125 18.253906 246.742188 33.613281 244.554688 53.285156 L 226.78125 53.285156 L 226.78125 48.90625 C 226.78125 36.828125 216.960938 27.011719 204.886719 27.011719 L 182.1875 27.011719 C 180.371094 21.929688 175.550781 18.253906 169.851562 18.253906 L 108.546875 18.253906 C 102.851562 18.253906 98.027344 21.929688 96.214844 27.011719 L 73.515625 27.011719 C 61.4375 27.011719 51.621094 36.828125 51.621094 48.90625 L 51.621094 241.582031 C 51.621094 253.660156 61.4375 263.480469 73.515625 263.480469 L 182.988281 263.480469 C 182.988281 270.730469 188.875 276.617188 196.128906 276.617188 L 201.121094 276.617188 C 203.089844 284.140625 209.878906 289.753906 218.023438 289.753906 C 226.164062 289.753906 232.957031 284.140625 234.921875 276.617188 L 271.1875 276.617188 C 273.152344 284.140625 279.945312 289.753906 288.085938 289.753906 C 296.230469 289.753906 303.019531 284.140625 304.988281 276.617188 L 309.980469 276.617188 C 317.234375 276.617188 323.121094 270.730469 323.121094 263.480469 L 323.121094 218.234375 L 307.792969 197.792969 L 288.085938 197.792969 " fill-opacity="1" fill-rule="nonzero"/></g><path fill="#000000" d="M 134.820312 79.558594 L 191.75 79.558594 L 191.75 70.800781 L 134.820312 70.800781 L 134.820312 79.558594 " fill-opacity="1" fill-rule="nonzero"/><path fill="#000000" d="M 182.988281 97.074219 L 191.75 97.074219 L 191.75 88.316406 L 182.988281 88.316406 L 182.988281 97.074219 " fill-opacity="1" fill-rule="nonzero"/><path fill="#000000" d="M 174.230469 88.316406 L 134.820312 88.316406 L 134.820312 97.074219 L 174.230469 97.074219 L 174.230469 88.316406 " fill-opacity="1" fill-rule="nonzero"/><path fill="#000000" d="M 134.820312 114.59375 L 191.75 114.59375 L 191.75 105.832031 L 134.820312 105.832031 L 134.820312 114.59375 " fill-opacity="1" fill-rule="nonzero"/><path fill="#000000" d="M 125.191406 125.96875 L 118.175781 120.734375 L 94.929688 151.710938 L 89.746094 146.527344 L 83.554688 152.71875 L 95.886719 165.054688 L 125.191406 125.96875 " fill-opacity="1" fill-rule="nonzero"/><path fill="#000000" d="M 134.820312 132.109375 L 191.75 132.109375 L 191.75 123.351562 L 134.820312 123.351562 L 134.820312 132.109375 " fill-opacity="1" fill-rule="nonzero"/><path fill="#000000" d="M 182.988281 149.625 L 191.75 149.625 L 191.75 140.867188 L 182.988281 140.867188 L 182.988281 149.625 " fill-opacity="1" fill-rule="nonzero"/><path fill="#000000" d="M 174.230469 140.867188 L 134.820312 140.867188 L 134.820312 149.625 L 174.230469 149.625 L 174.230469 140.867188 " fill-opacity="1" fill-rule="nonzero"/><path fill="#000000" d="M 134.820312 167.140625 L 191.75 167.140625 L 191.75 158.382812 L 134.820312 158.382812 L 134.820312 167.140625 " fill-opacity="1" fill-rule="nonzero"/><path fill="#000000" d="M 95.410156 193.414062 L 130.441406 193.414062 L 130.441406 219.6875 L 95.410156 219.6875 Z M 86.652344 228.445312 L 139.199219 228.445312 L 139.199219 184.65625 L 86.652344 184.65625 L 86.652344 228.445312 " fill-opacity="1" fill-rule="nonzero"/><path fill="#000000" d="M 147.957031 193.414062 L 174.230469 193.414062 L 174.230469 184.65625 L 147.957031 184.65625 L 147.957031 193.414062 " fill-opacity="1" fill-rule="nonzero"/><path fill="#000000" d="M 147.957031 210.929688 L 174.230469 210.929688 L 174.230469 202.171875 L 147.957031 202.171875 L 147.957031 210.929688 " fill-opacity="1" fill-rule="nonzero"/><path fill="#000000" d="M 147.957031 228.445312 L 174.230469 228.445312 L 174.230469 219.6875 L 147.957031 219.6875 L 147.957031 228.445312 " fill-opacity="1" fill-rule="nonzero"/><g fill="#ffffff" fill-opacity="1"><g transform="translate(130.874996, 336.334108)"><g><path d="M 27 0 L 20.953125 0 L 20.953125 -12.328125 L 9.65625 -12.328125 L 9.65625 0 L 3.59375 0 L 3.59375 -28.5625 L 9.65625 -28.5625 L 9.65625 -17.359375 L 20.953125 -17.359375 L 20.953125 -28.5625 L 27 -28.5625 Z M 27 0 "/></g></g></g><g fill="#ffffff" fill-opacity="1"><g transform="translate(161.477479, 336.334108)"><g><path d="M 29.515625 -14.3125 C 29.515625 -9.59375 28.34375 -5.960938 26 -3.421875 C 23.65625 -0.878906 20.296875 0.390625 15.921875 0.390625 C 11.546875 0.390625 8.1875 -0.878906 5.84375 -3.421875 C 3.5 -5.960938 2.328125 -9.609375 2.328125 -14.359375 C 2.328125 -19.109375 3.5 -22.734375 5.84375 -25.234375 C 8.195312 -27.742188 11.566406 -29 15.953125 -29 C 20.347656 -29 23.707031 -27.734375 26.03125 -25.203125 C 28.351562 -22.679688 29.515625 -19.050781 29.515625 -14.3125 Z M 8.671875 -14.3125 C 8.671875 -11.125 9.273438 -8.722656 10.484375 -7.109375 C 11.703125 -5.492188 13.515625 -4.6875 15.921875 -4.6875 C 20.753906 -4.6875 23.171875 -7.894531 23.171875 -14.3125 C 23.171875 -20.75 20.765625 -23.96875 15.953125 -23.96875 C 13.546875 -23.96875 11.726562 -23.15625 10.5 -21.53125 C 9.28125 -19.914062 8.671875 -17.507812 8.671875 -14.3125 Z M 8.671875 -14.3125 "/></g></g></g><g fill="#ffffff" fill-opacity="1"><g transform="translate(193.310306, 336.334108)"><g><path d="M 15.6875 0 L 8.8125 -22.40625 L 8.640625 -22.40625 C 8.878906 -17.84375 9 -14.800781 9 -13.28125 L 9 0 L 3.59375 0 L 3.59375 -28.5625 L 11.84375 -28.5625 L 18.59375 -6.71875 L 18.71875 -6.71875 L 25.875 -28.5625 L 34.125 -28.5625 L 34.125 0 L 28.484375 0 L 28.484375 -13.515625 C 28.484375 -14.148438 28.488281 -14.882812 28.5 -15.71875 C 28.519531 -16.550781 28.609375 -18.765625 28.765625 -22.359375 L 28.59375 -22.359375 L 21.234375 0 Z M 15.6875 0 "/></g></g></g><g fill="#ffffff" fill-opacity="1"><g transform="translate(231.021469, 336.334108)"><g><path d="M 20.046875 0 L 3.59375 0 L 3.59375 -28.5625 L 20.046875 -28.5625 L 20.046875 -23.59375 L 9.65625 -23.59375 L 9.65625 -17.328125 L 19.3125 -17.328125 L 19.3125 -12.359375 L 9.65625 -12.359375 L 9.65625 -5 L 20.046875 -5 Z M 20.046875 0 "/></g></g></g><g fill="#000000" fill-opacity="1"><g transform="translate(153.773432, 336.334108)"><g><path d="M 15.6875 0 L 8.8125 -22.40625 L 8.640625 -22.40625 C 8.878906 -17.84375 9 -14.800781 9 -13.28125 L 9 0 L 3.59375 0 L 3.59375 -28.5625 L 11.84375 -28.5625 L 18.59375 -6.71875 L 18.71875 -6.71875 L 25.875 -28.5625 L 34.125 -28.5625 L 34.125 0 L 28.484375 0 L 28.484375 -13.515625 C 28.484375 -14.148438 28.488281 -14.882812 28.5 -15.71875 C 28.519531 -16.550781 28.609375 -18.765625 28.765625 -22.359375 L 28.59375 -22.359375 L 21.234375 0 Z M 15.6875 0 "/></g></g></g><g fill="#000000" fill-opacity="1"><g transform="translate(191.484596, 336.334108)"><g><path d="M 15.71875 -23.921875 C 13.445312 -23.921875 11.6875 -23.066406 10.4375 -21.359375 C 9.1875 -19.648438 8.5625 -17.265625 8.5625 -14.203125 C 8.5625 -7.835938 10.945312 -4.65625 15.71875 -4.65625 C 17.726562 -4.65625 20.160156 -5.15625 23.015625 -6.15625 L 23.015625 -1.078125 C 20.671875 -0.0976562 18.050781 0.390625 15.15625 0.390625 C 11 0.390625 7.820312 -0.867188 5.625 -3.390625 C 3.425781 -5.910156 2.328125 -9.523438 2.328125 -14.234375 C 2.328125 -17.203125 2.863281 -19.800781 3.9375 -22.03125 C 5.019531 -24.269531 6.570312 -25.984375 8.59375 -27.171875 C 10.625 -28.367188 13 -28.96875 15.71875 -28.96875 C 18.5 -28.96875 21.285156 -28.296875 24.078125 -26.953125 L 22.125 -22.03125 C 21.0625 -22.539062 19.988281 -22.984375 18.90625 -23.359375 C 17.820312 -23.734375 16.757812 -23.921875 15.71875 -23.921875 Z M 15.71875 -23.921875 "/></g></g></g><g fill="#000000" fill-opacity="1"><g transform="translate(216.970392, 336.334108)"><g><path d="M 3.59375 0 L 3.59375 -28.5625 L 9.65625 -28.5625 L 9.65625 0 Z M 3.59375 0 "/></g></g></g></svg>